#!OML:ASF X:\für Bonn\!DataBase\2005_08_10_Bjorn_Final\c3d\bjorn.ASF
:FULLY-SPECIFIED
:DEGREES
138
root -15.4477 19.0765 13.9572 185.861 48.6342 -531.508
lowerback 9.76974 -0.369056 -2.42548
upperback 17.9238 2.11527 -0.722225
thorax 14.3294 1.76651 0.843088
lowerneck 8.70191 -3.39985 -1.12106
upperneck -11.2029 -3.26617 10.7057
head -4.58273 -2.15112 3.70456
rclavicle 4.13472e-014 -5.48646e-014
rhumerus -21.3083 -10.1195 -89.034
rradius 67.808
rwrist -1.7707
rhand -20.8356 19.6421
rfingers 7.12502
rthumb 5.53309 -10.2656
lclavicle 4.13472e-014 -5.48646e-014
lhumerus -12.1423 0.752567 87.5409
lradius 65.896
lwrist -15.8286
lhand -46.831 -17.2935
lfingers 7.12502
lthumb -19.5448 11.7441
rfemur -28.5872 -8.56972 12.5248
rtibia 86.8497
rfoot 10.6066 9.3873
rtoes -23.8849
lfemur -17.8679 10.2053 -11.7857
ltibia 38.7269
lfoot -12.9451 8.43368
ltoes -5.13389
139
root -15.4221 19.074 13.8851 185.515 48.8464 -531.315
lowerback 9.83481 -0.500155 -2.39249
upperback 17.9667 1.93085 -0.661493
thorax 14.3476 1.67587 0.887355
lowerneck 8.70048 -3.2522 -0.897583
upperneck -11.074 -3.09838 10.3042
head -4.5652 -2.05264 3.53008
rclavicle -1.43125e-014 -1.11319e-014
rhumerus -21.4889 -10.2629 -88.9778
rradius 68.0503
rwrist -1.77101
rhand -20.816 19.6163
rfingers 7.12502
rthumb 5.55196 -10.291
lclavicle -1.43125e-014 -1.11319e-014
lhumerus -12.0407 0.622311 87.5842
lradius 66.0832
lwrist -15.9283
lhand -47.0193 -17.2719
lfingers 7.12502
lthumb -19.7258 11.7472
rfemur -29.4983 -9.31748 12.5194
rtibia 88.1683
rfoot 10.7642 10.708
rtoes -23.8832
lfemur -16.9777 10.2551 -11.6602
ltibia 38.6722
lfoot -13.281 8.52284
ltoes -5.0134
140
root -15.3949 19.0688 13.8149 185.22 49.0494 -531.152
lowerback 9.81227 -0.623854 -2.40274
upperback 18.0064 1.75339 -0.589623
thorax 14.4148 1.57884 0.970558
lowerneck 8.62749 -3.10645 -0.672671
upperneck -10.9186 -2.93629 9.90103
head -4.52589 -1.95428 3.35325
rclavicle 3.81667e-014 -2.8625e-014
rhumerus -21.6096 -10.3965 -88.8857
rradius 68.2853
rwrist -1.84576
rhand -20.7651 19.5705
rfingers 7.12502
rthumb 5.60111 -10.3355
lclavicle 3.81667e-014 -2.8625e-014
lhumerus -11.8777 0.520901 87.6527
lradius 66.2706
lwrist -15.9664
lhand -47.1432 -17.3733
lfingers 7.12502
lthumb -19.8449 11.6335
rfemur -30.5028 -10.0785 12.5154
rtibia 89.4445
rfoot 10.8746 12.0432
rtoes -24.0061
lfemur -16.1948 10.3162 -11.5642
ltibia 38.6332
lfoot -13.5976 8.59334
ltoes -4.85241
141
root -15.366 19.0617 13.7454 184.949 49.2671 -530.986
lowerback 9.75908 -0.741455 -2.42465
upperback 18.034 1.5791 -0.512491
thorax 14.4852 1.47924 1.06604
lowerneck 8.6773 -2.94867 -0.42801
upperneck -10.8629 -2.74639 9.47781
head -4.53886 -1.84745 3.17056
rclavicle 1.12115e-013 -7.55382e-014
rhumerus -21.7573 -10.5293 -88.7745
rradius 68.5165
rwrist -1.81583
rhand -20.7002 19.5366
rfingers 7.12502
rthumb 5.66381 -10.3677
lclavicle 1.12115e-013 -7.55382e-014
lhumerus -11.7201 0.397233 87.7144
lradius 66.4553
lwrist -16.0199
lhand -47.2708 -17.3844
lfingers 7.12502
lthumb -19.9676 11.6097
rfemur -31.5239 -10.8381 12.5198
rtibia 90.6556
rfoot 11.0084 13.3011
rtoes -24.218
lfemur -15.4301 10.4082 -11.4615
ltibia 38.6119
lfoot -13.9285 8.64365
ltoes -4.48604
142
root -15.3362 19.056 13.6767 184.679 49.4776 -530.82
lowerback 9.70044 -0.853697 -2.42532
upperback 18.072 1.41694 -0.442268
thorax 14.5734 1.39015 1.14295
lowerneck 8.65298 -2.81207 -0.139081
upperneck -10.7545 -2.58897 9.0241
head -4.52126 -1.75355 2.97056
rclavicle 2.54444e-014 -7.95139e-016
rhumerus -21.8766 -10.6985 -88.6668
rradius 68.7497
rwrist -1.81244
rhand -20.6566 19.4699
rfingers 7.12502
rthumb 5.70588 -10.4333
lclavicle 2.54444e-014 -7.95139e-016
lhumerus -11.5039 0.299311 87.795
lradius 66.6244
lwrist -16.1359
lhand -47.324 -17.3487
lfingers 7.12502
lthumb -20.0188 11.6401
rfemur -32.5189 -11.5398 12.5501
rtibia 91.7792
rfoot 11.0961 14.4473
rtoes -24.6699
lfemur -14.6761 10.5409 -11.3529
ltibia 38.6007
lfoot -14.2157 8.66479
ltoes -4.36237
143
root -15.3038 19.0487 13.6082 184.431 49.7078 -530.65
lowerback 9.61402 -0.94579 -2.41179
upperback 18.1006 1.28017 -0.377508
thorax 14.6662 1.31471 1.20652
lowerneck 8.70778 -2.68195 0.186194
upperneck -10.7016 -2.42826 8.57102
head -4.53344 -1.66247 2.76751
rclavicle 1.19271e-014 4.77083e-015
rhumerus -22.0184 -10.9382 -88.5943
rradius 68.9977
rwrist -1.75933
rhand -20.622 19.458
rfingers 7.12502
rthumb 5.73928 -10.4443
lclavicle 1.19271e-014 4.77083e-015
lhumerus -11.2966 0.136772 87.8531
lradius 66.815
lwrist -16.2106
lhand -47.3718 -17.317
lfingers 7.12502
lthumb -20.0647 11.667
rfemur -33.5032 -12.1876 12.5992
rtibia 92.8264
rfoot 11.1187 15.4826
rtoes -25.3204
lfemur -13.9428 10.6559 -11.2379
ltibia 38.6046
lfoot -14.5228 8.705
ltoes -4.07174
144
root -15.271 19.0387 13.542 184.183 49.912 -530.482
lowerback 9.54081 -1.03347 -2.41122
upperback 18.1347 1.14929 -0.290898
thorax 14.7582 1.23915 1.30157
lowerneck 8.72106 -2.5608 0.500756
upperneck -10.6261 -2.28407 8.11814
head -4.52934 -1.57758 2.5662
rclavicle 5.24792e-014 -9.62118e-014
rhumerus -22.1797 -11.0994 -88.4875
rradius 69.3122
rwrist -1.75368
rhand -20.7011 19.3645
rfingers 7.12502
rthumb 5.66297 -10.5398
lclavicle 5.24792e-014 -9.62118e-014
lhumerus -11.069 -0.0714697 87.9312
lradius 67.0128
lwrist -16.3316
lhand -47.3682 -17.1927
lfingers 7.12502
lthumb -20.0612 11.7916
rfemur -34.4765 -12.8508 12.6671
rtibia 93.7995
rfoot 11.1206 16.447
rtoes -26.254
lfemur -13.2235 10.7898 -11.1087
ltibia 38.6258
lfoot -14.8446 8.68617
ltoes -3.63206
145
root -15.2381 19.0271 13.4751 183.928 50.1454 -530.309
lowerback 9.49042 -1.1151 -2.36568
upperback 18.1472 1.023 -0.227487
thorax 14.8078 1.17349 1.34415
lowerneck 8.81509 -2.43491 0.824066
upperneck -10.5675 -2.12742 7.67268
head -4.5433 -1.48937 2.36687
rclavicle -1.82882e-013 1.70955e-013
rhumerus -22.3279 -11.3351 -88.4034
rradius 69.5436
rwrist -1.59532
rhand -20.7964 19.3084
rfingers 7.12502
rthumb 5.57097 -10.5984
lclavicle -1.82882e-013 1.70955e-013
lhumerus -10.9021 -0.317994 87.9781
lradius 67.2176
lwrist -16.4387
lhand -47.3654 -17.0728
lfingers 7.12502
lthumb -20.0585 11.9118
rfemur -35.4177 -13.4632 12.7367
rtibia 94.6932
rfoot 11.0587 17.3836
rtoes -27.351
lfemur -12.4997 10.9544 -10.983
ltibia 38.6768
lfoot -15.1573 8.70396
ltoes -3.57918
146
root -15.2055 19.0139 13.4106 183.714 50.3679 -530.075
lowerback 9.43944 -1.20006 -2.25587
upperback 18.1907 0.901432 -0.158093
thorax 14.8978 1.12106 1.35965
lowerneck 8.80614 -2.3239 1.13511
upperneck -10.4878 -1.99801 7.21991
head -4.53092 -1.41087 2.16697
rclavicle -3.18055e-015 4.53229e-014
rhumerus -22.4191 -11.5786 -88.3341
rradius 69.8004
rwrist -1.52445
rhand -20.9439 19.3122
rfingers 7.12502
rthumb 5.42847 -10.5983
lclavicle -3.18055e-015 4.53229e-014
lhumerus -10.6356 -0.584252 88.015
lradius 67.3781
lwrist -16.6035
lhand -47.3306 -16.9071
lfingers 7.12502
lthumb -20.025 12.081
rfemur -36.3333 -14.0564 12.87
rtibia 95.4945
rfoot 10.9815 18.1939
rtoes -28.1726
lfemur -11.7932 11.1247 -10.7961
ltibia 38.7569
lfoot -15.471 8.68277
ltoes -3.28761
147
root -15.1729 18.9997 13.3456 183.505 50.5931 -529.87
lowerback 9.35252 -1.28579 -2.12793
upperback 18.2282 0.777575 -0.0989743
thorax 15.0019 1.06992 1.35368
lowerneck 8.7777 -2.2051 1.40568
upperneck -10.3734 -1.86168 6.80562
head -4.50277 -1.32839 1.98458
rclavicle -1.59028e-015 7.95139e-015
rhumerus -22.4924 -11.8266 -88.2583
rradius 70.0766
rwrist -1.43406
rhand -21.1126 19.2661
rfingers 7.12502
rthumb 5.26565 -10.6485
lclavicle -1.59028e-015 7.95139e-015
lhumerus -10.3731 -0.876375 88.0406
lradius 67.5554
lwrist -16.7466
lhand -47.203 -16.7965
lfingers 7.12502
lthumb -19.9025 12.2044
rfemur -37.2529 -14.6294 13.0025
rtibia 96.2037
rfoot 10.8265 18.8566
rtoes -28.9238
lfemur -11.1275 11.295 -10.6365
ltibia 38.8561
lfoot -15.7969 8.6726
ltoes -3.16822
